<?xml version="1.0" encoding="UTF-8" standalone="no"?>
<!-- Created with Inkscape (http://www.inkscape.org/) -->

<svg
   xmlns:dc="http://purl.org/dc/elements/1.1/"
   xmlns:cc="http://creativecommons.org/ns#"
   xmlns:rdf="http://www.w3.org/1999/02/22-rdf-syntax-ns#"
   xmlns:svg="http://www.w3.org/2000/svg"
   xmlns="http://www.w3.org/2000/svg"
   xmlns:sodipodi="http://sodipodi.sourceforge.net/DTD/sodipodi-0.dtd"
   xmlns:inkscape="http://www.inkscape.org/namespaces/inkscape"
   width="42.91959mm"
   height="42.91959mm"
   viewBox="0 0 42.91959 42.919589"
   version="1.1"
   id="svg8"
   inkscape:version="0.92.3 (2405546, 2018-03-11)"
   sodipodi:docname="icon.svg"
   inkscape:export-filename="C:\docs\projekte\GitBackupKeeper\icon\icon.png"
   inkscape:export-xdpi="303.58664"
   inkscape:export-ydpi="303.58664">
  <defs
     id="defs2" />
  <sodipodi:namedview
     id="base"
     pagecolor="#00ff00"
     bordercolor="#666666"
     borderopacity="1.0"
     inkscape:pageopacity="0"
     inkscape:pageshadow="2"
     inkscape:zoom="3.959798"
     inkscape:cx="34.311965"
     inkscape:cy="72.268593"
     inkscape:document-units="mm"
     inkscape:current-layer="layer1"
     showgrid="false"
     showguides="false"
     inkscape:window-width="1920"
     inkscape:window-height="1001"
     inkscape:window-x="-9"
     inkscape:window-y="-9"
     inkscape:window-maximized="1"
     fit-margin-top="0"
     fit-margin-left="0"
     fit-margin-right="0"
     fit-margin-bottom="0" />
  <metadata
     id="metadata5">
    <rdf:RDF>
      <cc:Work
         rdf:about="">
        <dc:format>image/svg+xml</dc:format>
        <dc:type
           rdf:resource="http://purl.org/dc/dcmitype/StillImage" />
        <dc:title></dc:title>
      </cc:Work>
    </rdf:RDF>
  </metadata>
  <g
     inkscape:label="Ebene 1"
     inkscape:groupmode="layer"
     id="layer1"
     transform="translate(155.11954,5.3203142)">
    <g
       id="g4573"
       transform="translate(-8.3390186e-6,-7.0641676)">
      <path
         sodipodi:nodetypes="ccccccccccccccccccccccccc"
         inkscape:connector-curvature="0"
         id="rect4564"
         d="m -137.93801,9.9251871 -1.89912,0.8889719 5.66251,5.809438 c -0.38536,0.922727 -0.20425,2.025849 0.54716,2.776679 0.24552,0.246689 0.52898,0.430336 0.83181,0.553972 v 9.099345 c -0.30269,0.124158 -0.58664,0.309245 -0.83181,0.55397 -0.99201,0.991846 -0.99201,2.59925 0,3.59258 0.99113,0.991729 2.59927,0.991729 3.59145,0 0.99186,-0.993417 0.99186,-2.600822 0,-3.59258 -0.20157,-0.200696 -0.43028,-0.360366 -0.67216,-0.480109 l 5.8e-4,-9.015254 3.42611,3.426104 c -0.37787,0.919176 -0.1932,2.015295 0.55283,2.761906 0.99286,0.992455 2.59971,0.992455 3.59202,0 0.99216,-0.992137 0.99216,-2.59957 0,-3.591444 -0.70967,-0.710924 -1.7351,-0.909102 -2.62384,-0.602835 l -3.67326,-3.67326 c 0.30668,-0.889039 0.10731,-1.913329 -0.60227,-2.623839 -0.70597,-0.706108 -1.72187,-0.906548 -2.60793,-0.60738 z m -10.14954,13.1432349 -0.13522,0.135226 0.0301,0.03011 c 0.0324,-0.05633 0.0672,-0.111539 0.10511,-0.16534 z"
         style="fill:#ffffff;fill-opacity:1;stroke:#000000;stroke-width:0.89999998;stroke-miterlimit:4;stroke-dasharray:none;stroke-opacity:1" />
      <g
         transform="matrix(1.0323475,0,0,1.0323475,-136.97628,5.961215)"
         id="g3749"
         style="fill:#000000">
        <path
           style="fill:none"
           inkscape:connector-curvature="0"
           d="M 0,0 H 24 V 24 H 0 Z"
           id="path3735" />
        <path
           sodipodi:nodetypes="scccccsssccsss"
           style="fill:#ffffff;fill-opacity:1;stroke:#000000;stroke-width:0.87179947;stroke-miterlimit:4;stroke-dasharray:none;stroke-opacity:1"
           inkscape:connector-curvature="0"
           d="m 5.9908402,-0.18276952 c -9.3242331,0 -16.8849292,7.56069642 -16.8849292,16.88492952 h -5.62831 l 7.5044132,7.504414 7.504413,-7.504414 h -5.6283098 c 0,-7.2605191 5.8722032,-13.132723 13.1327228,-13.132723 7.2605198,0 13.1327228,5.8722039 13.1327228,13.132723 0,7.26052 -5.872203,13.132724 -13.1327228,13.132724 -2.832916,0 -5.45946031,-0.919291 -7.6169791,-2.438934 l -2.6640667,2.701588 c 2.851677,2.17628 6.4162732,3.489552 10.2810458,3.489552 9.3242338,0 16.8849298,-7.560696 16.8849298,-16.88493 0,-9.3242331 -7.560696,-16.88492952 -16.8849298,-16.88492952 z"
           id="path3737" />
      </g>
    </g>
  </g>
</svg>
